<svg id="Capa_1" enable-background="new 0 0 512 512" height="512" viewBox="0 0 512 512" width="512" xmlns="http://www.w3.org/2000/svg"><path d="m79.742 354.269c-4.7 2.303-10.4 2.39-15.361-.278-5.154-2.772-8.274-7.848-8.772-13.27-.179-1.942-2.715-2.542-3.777-.905-.731 1.128-1.423 2.294-2.071 3.499-13.012 24.193-3.947 54.354 20.246 67.366 11.335 6.096 23.973 7.323 35.55 4.44 9.774-2.194 18.517-8.709 23.142-18.645 7.391-15.874 1.1-35.071-14.227-43.54-11.325-6.257-24.652-5.286-34.73 1.333z" fill="#fcb143"/><path d="m54.835 339.325c-.413-.321-.929-.485-1.451-.442.481.169.964.32 1.451.442z" fill="#fba615"/><path d="m115.977 353.822c3.287 8.315 3.305 17.886-.698 26.485-4.626 9.935-13.369 16.451-23.142 18.645-11.577 2.883-24.215 1.656-35.55-4.44-2.558-1.375-4.935-2.953-7.146-4.684 4.447 8.568 11.424 15.936 20.567 20.853 11.335 6.096 23.973 7.323 35.55 4.44 9.774-2.193 18.517-8.709 23.142-18.644 7.143-15.345 1.502-33.791-12.723-42.655z" fill="#fba615"/><circle cx="264.848" cy="258.382" fill="#e5ecf1" r="182.69"/><path d="m356.126 100.099c31.748 32.866 51.286 77.601 51.286 126.905 0 100.897-81.793 182.69-182.69 182.69-33.249 0-64.421-8.886-91.278-24.407 33.221 34.391 79.811 55.784 131.403 55.784 100.897 0 182.69-81.793 182.69-182.69.001-67.646-36.769-126.703-91.411-158.282z" fill="#d6e4ea"/><path d="m264.848 461.717c-112.119 0-203.335-91.216-203.335-203.335s91.216-203.335 203.335-203.335 203.335 91.216 203.335 203.335-91.216 203.335-203.335 203.335zm0-365.379c-89.352 0-162.045 72.693-162.045 162.045s72.693 162.045 162.045 162.045 162.045-72.693 162.045-162.045-72.694-162.045-162.045-162.045z" fill="#0a81f9"/><path d="m396.151 103.261c31.693 35.869 50.959 82.961 50.959 134.476 0 112.119-91.216 203.335-203.335 203.335-50.009 0-95.85-18.158-131.303-48.213 37.285 42.198 91.771 68.858 152.375 68.858 112.119 0 203.335-91.216 203.335-203.335.001-62.11-28.001-117.794-72.031-155.121z" fill="#0571f9"/><path d="m269.091 275.445c-4.02.839-8.208.046-11.644-2.204l-97.125-63.596c-7.154-4.685-9.156-14.281-4.472-21.436s14.282-9.157 21.436-4.472l84.171 55.114 32.709-49.617c4.684-7.155 14.282-9.157 21.436-4.472 7.154 4.684 9.156 14.281 4.472 21.436l-41.191 62.571c-2.25 3.436-5.771 5.837-9.792 6.676z" fill="#0a81f9"/><path d="m315.602 184.762c-.596-.39-1.214-.717-1.84-1.016-.358 1.984-1.112 3.93-2.286 5.723l-41.191 62.571c-2.249 3.436-5.771 5.837-9.792 6.676-4.02.839-8.209.046-11.644-2.204l-95.308-62.407c-.993 5.881 1.471 12.062 6.78 15.539l97.125 63.596c3.436 2.249 7.624 3.042 11.644 2.204 4.02-.839 7.542-3.24 9.792-6.676l41.191-62.571c4.685-7.153 2.683-16.751-4.471-21.435z" fill="#0571f9"/><circle cx="265.262" cy="258.571" fill="#0a81f9" r="26.718"/><path d="m272.298 232.796c3.286 4.439 5.231 9.931 5.231 15.878 0 14.756-11.962 26.718-26.718 26.718-2.436 0-4.793-.332-7.035-.943 4.867 6.575 12.678 10.84 21.487 10.84 14.756 0 26.718-11.962 26.718-26.718 0-12.32-8.342-22.687-19.683-25.775z" fill="#0571f9"/><path d="m188.085 399.228c-8.166-3.757-14.467-11.252-16.299-20.751-1.903-9.87 1.47-19.531 8.147-26.077 2.392-2.346.438-6.373-2.893-6.01-2.295.25-4.598.595-6.905 1.04-46.327 8.931-76.642 53.727-67.71 100.053 4.185 21.705 16.265 39.861 32.666 52.144 13.526 10.631 31.688 15.199 49.933 10.576 29.153-7.386 47.882-36.594 42.524-66.186-3.96-21.867-19.714-38.555-39.463-44.789z" fill="#fcb143"/><g fill="#8c9ba6"><circle cx="387.342" cy="259.043" r="11.005"/><circle cx="142.354" cy="259.043" r="11.005"/><circle cx="264.848" cy="381.537" r="11.005"/><circle cx="264.848" cy="136.548" r="11.005"/><ellipse cx="371.547" cy="319.21" rx="11.005" ry="11.005" transform="matrix(.491 -.871 .871 .491 -89.001 486.057)"/><ellipse cx="204.68" cy="365.742" rx="11.005" ry="11.005" transform="matrix(.491 -.871 .871 .491 -214.437 364.383)"/><ellipse cx="325.015" cy="152.343" rx="11.005" ry="11.005" transform="matrix(.491 -.871 .871 .491 32.673 360.621)"/><ellipse cx="326.301" cy="365.007" rx="11.005" ry="11.005" transform="matrix(.865 -.502 .502 .865 -139.083 212.953)"/><ellipse cx="203.395" cy="153.078" rx="11.005" ry="11.005" transform="matrix(.865 -.502 .502 .865 -49.349 122.696)"/><ellipse cx="158.884" cy="320.495" rx="11.005" ry="11.005" transform="matrix(.865 -.502 .502 .865 -139.345 122.958)"/><ellipse cx="370.812" cy="197.59" rx="11.005" ry="11.005" transform="matrix(.865 -.502 .502 .865 -49.087 212.692)"/></g><path d="m432.014 40.411c-5.442-3.899-8.994-10.268-8.994-17.473 0-7.486 3.829-14.075 9.634-17.921 2.08-1.378 1.219-4.599-1.268-4.803-1.713-.142-3.446-.214-5.196-.214-35.138 0-63.623 28.485-63.623 63.623 0 16.463 6.275 31.443 16.537 42.738 8.393 9.681 21.03 15.583 35.025 14.774 22.361-1.291 40.175-20.01 40.429-42.406.187-16.55-8.981-30.975-22.544-38.318z" fill="#fcb143"/><path d="m432.014 40.411c-5.442-3.899-8.994-10.268-8.994-17.473 0-7.486 3.829-14.075 9.634-17.921 2.08-1.378 1.219-4.599-1.268-4.803-1.713-.142-3.446-.214-5.196-.214-7.992 0-15.633 1.487-22.68 4.178-4.464 3.936-7.286 9.691-7.286 16.112 0 7.205 3.552 13.575 8.994 17.473 13.563 7.343 22.731 21.768 22.544 38.318-.227 20.059-14.545 37.157-33.595 41.438 6.047 2.689 12.826 4.029 19.962 3.617 22.361-1.291 40.175-20.01 40.429-42.406.187-16.551-8.981-30.976-22.544-38.319z" fill="#fba615"/><path d="m410.989 62.276c-3.988-.092-7.876-2.035-10.295-5.583-2.514-3.686-2.841-8.216-1.274-12.059.561-1.377-.944-2.673-2.237-1.939-.891.506-1.768 1.052-2.63 1.64-17.3 11.799-21.759 35.388-9.961 52.688 5.528 8.105 13.648 13.374 22.493 15.489 7.383 1.948 15.586.61 22.205-4.487 10.575-8.144 13.061-23.342 5.665-34.454-5.465-8.21-14.823-12.234-23.966-11.295z" fill="#fc6b55"/><path d="m434.954 73.572c-2.23-3.351-5.115-5.992-8.363-7.895.788 3.337 1.211 6.816 1.171 10.404-.173 15.298-8.543 28.875-20.954 36.359.092.023.184.05.276.073 7.383 1.948 15.587.61 22.205-4.487 10.575-8.144 13.061-23.342 5.665-34.454z" fill="#fc534e"/><path d="m411.719 386.872c-4.211-3.108-6.916-8.127-6.836-13.759.083-5.852 3.15-10.96 7.731-13.902 1.641-1.054 1.004-3.581-.938-3.769-1.338-.129-2.692-.205-4.06-.225-27.468-.392-50.052 21.557-50.444 49.025-.184 12.869 4.554 24.65 12.45 33.593 6.453 7.661 16.266 12.416 27.215 11.94 17.494-.76 31.628-15.194 32.076-32.699.332-12.934-6.674-24.313-17.194-30.204z" fill="#fcb143"/><path d="m411.719 386.872c-4.211-3.108-6.916-8.127-6.836-13.759.083-5.852 3.15-10.96 7.731-13.902 1.641-1.054 1.004-3.581-.938-3.769-1.338-.129-2.692-.205-4.06-.225-6.247-.089-12.237.988-17.776 3.013-3.534 3.027-5.804 7.495-5.875 12.513-.08 5.632 2.625 10.651 6.836 13.759 10.521 5.891 17.527 17.27 17.195 30.205-.401 15.678-11.784 28.884-26.724 32.018 4.697 2.169 9.981 3.293 15.564 3.05 17.494-.76 31.628-15.194 32.076-32.699.333-12.934-6.673-24.313-17.193-30.204z" fill="#fba615"/><path d="m394.751 409.25c-2.686-.1-5.287-1.447-6.883-3.86-1.658-2.507-1.835-5.563-.743-8.137.391-.922-.611-1.81-1.489-1.328-.605.332-1.202.692-1.788 1.08-11.769 7.783-15 23.633-7.217 35.402 3.647 5.514 9.066 9.142 15.005 10.652 4.955 1.384 10.495.561 15.004-2.81 7.203-5.385 9.024-15.601 4.148-23.159-3.601-5.584-9.867-8.385-16.037-7.84z" fill="#fc6b55"/><path d="m410.79 417.09c-1.47-2.279-3.389-4.086-5.559-5.399.499 2.256.751 4.604.689 7.021-.264 10.305-6.033 19.372-14.467 24.295.062.016.123.036.185.052 4.955 1.384 10.495.561 15.004-2.809 7.203-5.386 9.024-15.602 4.148-23.16z" fill="#fc534e"/><path d="m227.547 444.017c-3.959-21.867-19.714-38.555-39.462-44.789-8.166-3.757-14.467-11.252-16.299-20.752-1.903-9.87 1.47-19.531 8.147-26.077 2.392-2.345.438-6.373-2.893-6.01-2.295.25-4.598.595-6.905 1.04-9.76 1.882-18.806 5.361-26.928 10.105-4.564 6.243-6.628 14.286-5.049 22.479 1.831 9.5 8.133 16.995 16.299 20.751 19.749 6.234 35.503 22.922 39.462 44.789 5.038 27.826-11.224 55.307-37.42 64.63 9.021 2.313 18.757 2.494 28.524.019 29.153-7.385 47.882-36.593 42.524-66.185z" fill="#fba615"/><path d="m165.922 433.4c-5.282.892-10.901-.682-14.993-4.744-4.251-4.22-5.834-10.109-4.745-15.574.39-1.958-1.924-3.285-3.443-1.988-1.046.893-2.064 1.837-3.051 2.83-19.81 19.953-19.693 52.187.26 71.997 9.348 9.281 21.393 14.164 33.592 14.704 10.229.692 20.705-3.157 28.136-11.56 11.873-13.425 11.287-34.095-1.288-46.865-9.291-9.436-22.651-12.362-34.468-8.8z" fill="#fc6b55"/><path d="m200.391 442.2c-2.765-2.808-5.896-5.026-9.233-6.681 1.198 3.2 2.131 6.551 2.762 10.035 3.833 21.169-4.664 42.136-20.482 55.064.035.002.07.005.105.007 10.229.692 20.705-3.157 28.136-11.56 11.873-13.425 11.286-34.094-1.288-46.865z" fill="#fc534e"/></svg>