<?xml version="1.0" encoding="iso-8859-1"?>
<!-- Generator: Adobe Illustrator 19.0.0, SVG Export Plug-In . SVG Version: 6.00 Build 0)  -->
<svg version="1.1" id="Capa_1" xmlns="http://www.w3.org/2000/svg" xmlns:xlink="http://www.w3.org/1999/xlink" x="0px" y="0px"
	 viewBox="0 0 434.4 434.4" style="enable-background:new 0 0 434.4 434.4;" xml:space="preserve">
<g>
	<rect x="165.6" y="122.8" style="fill:#FC8943;" width="101.6" height="46.4"/>
	<rect x="165.6" y="54.8" style="fill:#FC8943;" width="101.6" height="46.4"/>
	<rect x="165.6" y="190.8" style="fill:#FC8943;" width="101.6" height="45.6"/>
</g>
<g>
	<rect x="300.8" y="258.8" style="fill:#FFC46A;" width="102.4" height="46.4"/>
	<rect x="300.8" y="190.8" style="fill:#FFC46A;" width="102.4" height="45.6"/>
	<rect x="300.8" y="122.8" style="fill:#FFC46A;" width="102.4" height="46.4"/>
</g>
<rect x="165.6" y="258.8" style="fill:#FC8943;" width="101.6" height="46.4"/>
<g>
	<rect x="31.2" y="190.8" style="fill:#71D2E2;" width="102.4" height="45.6"/>
	<rect x="31.2" y="258.8" style="fill:#71D2E2;" width="102.4" height="46.4"/>
</g>
<rect x="8" y="334" style="fill:#FFC46A;" width="418.4" height="46.4"/>
<g>
	<path style="fill:#061935;" d="M39.2,312.4h86.4c8.8,0,16-7.2,16-16V266c0-8.8-7.2-16-16-16H39.2c-8.8,0-16,7.2-16,16v30.4
		C23.2,305.2,30.4,312.4,39.2,312.4z M39.2,266.8h86.4v30.4H39.2V266.8z"/>
	<path style="fill:#061935;" d="M39.2,244.4h86.4c8.8,0,16-7.2,16-16v-29.6c0-8.8-7.2-16-16-16H39.2c-8.8,0-16,7.2-16,16v29.6
		C23.2,237.2,30.4,244.4,39.2,244.4z M39.2,198.8h86.4v30.4H39.2V198.8z"/>
	<path style="fill:#061935;" d="M173.6,312.4H260c8.8,0,16-7.2,16-16V266c0-8.8-7.2-16-16-16h-86.4c-8.8,0-16,7.2-16,16v30.4
		C157.6,305.2,164.8,312.4,173.6,312.4z M173.6,266.8H260v30.4h-86.4V266.8z"/>
	<path style="fill:#061935;" d="M173.6,244.4H260c8.8,0,16-7.2,16-16v-29.6c0-8.8-7.2-16-16-16h-86.4c-8.8,0-16,7.2-16,16v29.6
		C157.6,237.2,164.8,244.4,173.6,244.4z M173.6,198.8H260v30.4h-86.4V198.8z"/>
	<path style="fill:#061935;" d="M173.6,176.4H260c8.8,0,16-7.2,16-16V130c0-8.8-7.2-16-16-16h-86.4c-8.8,0-16,7.2-16,16v30.4
		C157.6,169.2,164.8,176.4,173.6,176.4z M173.6,130.8H260v30.4h-86.4V130.8z"/>
	<path style="fill:#061935;" d="M173.6,108.4H260c8.8,0,16-7.2,16-16V62c0-8.8-7.2-16-16-16h-86.4c-8.8,0-16,7.2-16,16v30.4
		C157.6,101.2,164.8,108.4,173.6,108.4z M173.6,62.8H260v30.4h-86.4V62.8z"/>
	<path style="fill:#061935;" d="M308.8,312.4h86.4c8.8,0,16-7.2,16-16V266c0-8.8-7.2-16-16-16h-86.4c-8.8,0-16,7.2-16,16v30.4
		C292.8,305.2,300,312.4,308.8,312.4z M308.8,266.8h86.4v30.4h-86.4V266.8z"/>
	<path style="fill:#061935;" d="M308.8,244.4h86.4c8.8,0,16-7.2,16-16v-29.6c0-8.8-7.2-16-16-16h-86.4c-8.8,0-16,7.2-16,16v29.6
		C292.8,237.2,300,244.4,308.8,244.4z M308.8,198.8h86.4v30.4h-86.4V198.8z"/>
	<path style="fill:#061935;" d="M308.8,176.4h86.4c8.8,0,16-7.2,16-16V130c0-8.8-7.2-16-16-16h-86.4c-8.8,0-16,7.2-16,16v30.4
		C292.8,169.2,300,176.4,308.8,176.4z M308.8,130.8h86.4v30.4h-86.4V130.8z"/>
	<path style="fill:#061935;" d="M417.6,326H16c-8.8,0-16,7.2-16,16v30.4c0,8.8,7.2,16,16,16h402.4c8.8,0,16-7.2,16-16V342
		C433.6,333.2,426.4,326,417.6,326z M16,371.6v-30.4h402.4v30.4H16z"/>
</g>
<g>
</g>
<g>
</g>
<g>
</g>
<g>
</g>
<g>
</g>
<g>
</g>
<g>
</g>
<g>
</g>
<g>
</g>
<g>
</g>
<g>
</g>
<g>
</g>
<g>
</g>
<g>
</g>
<g>
</g>
</svg>
